<svg width="9111" height="2991" viewBox="0 0 9111 2991" fill="none" xmlns="http://www.w3.org/2000/svg">
<path d="M1212.44 508.518C1259.65 431.435 1371.62 431.435 1418.83 508.518L2342.22 2016.5C2391.59 2097.12 2333.57 2200.68 2239.03 2200.68H392.238C297.697 2200.68 239.677 2097.12 289.047 2016.5L1212.44 508.518Z" fill="url(#paint0_linear_997_113)"/>
<mask id="mask0_997_113" style="mask-type:alpha" maskUnits="userSpaceOnUse" x="271" y="450" width="2090" height="1751">
<path d="M1212.44 508.518C1259.65 431.435 1371.62 431.435 1418.83 508.518L2342.22 2016.5C2391.59 2097.12 2333.57 2200.68 2239.03 2200.68H392.238C297.697 2200.68 239.677 2097.12 289.047 2016.5L1212.44 508.518Z" fill="url(#paint1_linear_997_113)"/>
</mask>
<g mask="url(#mask0_997_113)">
<path d="M1927.2 1305H3699.95C4034.66 1305 4300.35 1586.72 4280.77 1920.86C4268.02 2138.49 4134.66 2330.74 3935.28 2418.92L2169.64 3199.81C1747.01 3386.72 1273.23 3071.68 1282.13 2609.64L1295.32 1924.83C1301.95 1580.59 1582.9 1305 1927.2 1305Z" stroke="black" stroke-width="336"/>
<path d="M1278.56 2201.47C1278.55 1590.97 1385.02 1366.53 1902 1337.5" stroke="white" stroke-width="53" stroke-dasharray="200 150"/>
</g>
<g filter="url(#filter0_d_997_113)">
<path d="M2666 2153C2666 1929 2666 1702.33 2666 1473C2666 1243.67 2666 1017 2666 793C2748.67 793 2831.33 793 2914 793C2998 793 3080.67 793 3162 793C3264.67 793 3354 813 3430 853C3506 891.667 3565.33 946.333 3608 1017C3650.67 1087.67 3672 1170.33 3672 1265C3672 1358.33 3650.67 1440.33 3608 1511C3566.67 1581.67 3509.33 1636.33 3436 1675C3364 1713.67 3282 1733 3190 1733C3160.67 1733 3131.33 1733 3102 1733C3074 1733 3045.33 1733 3016 1733C3016 1802.33 3016 1872.33 3016 1943C3016 2013.67 3016 2083.67 3016 2153C2958.67 2153 2900.67 2153 2842 2153C2783.33 2153 2724.67 2153 2666 2153ZM3162 1107C3138 1107 3113.33 1107 3088 1107C3064 1107 3040 1107 3016 1107C3016 1160.33 3016 1214.33 3016 1269C3016 1322.33 3016 1375.67 3016 1429C3042.67 1429 3070 1429 3098 1429C3127.33 1429 3155.33 1429 3182 1429C3223.33 1429 3256.67 1413.67 3282 1383C3308.67 1352.33 3322 1314.33 3322 1269C3322 1222.33 3308 1183.67 3280 1153C3252 1122.33 3212.67 1107 3162 1107ZM3811.55 2153C3811.55 1929 3811.55 1702.33 3811.55 1473C3811.55 1243.67 3811.55 1017 3811.55 793C3891.55 793 3971.55 793 4051.55 793C4132.88 793 4213.55 793 4293.55 793C4394.88 793 4483.55 812.333 4559.55 851C4635.55 888.333 4694.21 941.667 4735.55 1011C4778.21 1079 4799.55 1159 4799.55 1251C4799.55 1329.67 4783.55 1399.67 4751.55 1461C4719.55 1522.33 4676.21 1572.33 4621.55 1611C4674.88 1700.33 4728.21 1791 4781.55 1883C4836.21 1973.67 4890.21 2063.67 4943.55 2153C4878.21 2153 4812.88 2153 4747.55 2153C4682.21 2153 4616.88 2153 4551.55 2153C4510.21 2078.33 4468.21 2002.33 4425.55 1925C4384.21 1847.67 4342.21 1771.67 4299.55 1697C4276.88 1697 4253.55 1697 4229.55 1697C4206.88 1697 4184.21 1697 4161.55 1697C4161.55 1771.67 4161.55 1847.67 4161.55 1925C4161.55 2002.33 4161.55 2078.33 4161.55 2153C4104.21 2153 4046.21 2153 3987.55 2153C3928.88 2153 3870.21 2153 3811.55 2153ZM4293.55 1109C4272.21 1109 4250.21 1109 4227.55 1109C4206.21 1109 4184.21 1109 4161.55 1109C4161.55 1158.33 4161.55 1207.67 4161.55 1257C4161.55 1306.33 4161.55 1355.67 4161.55 1405C4186.88 1405 4212.21 1405 4237.55 1405C4262.88 1405 4288.21 1405 4313.55 1405C4353.55 1405 4386.21 1391 4411.55 1363C4436.88 1333.67 4449.55 1298.33 4449.55 1257C4449.55 1214.33 4435.55 1179 4407.55 1151C4380.88 1123 4342.88 1109 4293.55 1109ZM5033.5 2153C5033.5 1929 5033.5 1702.33 5033.5 1473C5033.5 1243.67 5033.5 1017 5033.5 793C5092.17 793 5150.83 793 5209.5 793C5268.17 793 5326.17 793 5383.5 793C5383.5 1017 5383.5 1243.67 5383.5 1473C5383.5 1702.33 5383.5 1929 5383.5 2153C5326.17 2153 5268.17 2153 5209.5 2153C5150.83 2153 5092.17 2153 5033.5 2153ZM6508.36 1743C6508.36 1844.33 6481.69 1927 6428.36 1991C6376.36 2053.67 6305.69 2099 6216.36 2127C6128.36 2155 6029.69 2167 5920.36 2163C5811.03 2160.33 5699.69 2143.67 5586.36 2113C5586.36 2055.67 5586.36 1998.33 5586.36 1941C5586.36 1883.67 5586.36 1826.33 5586.36 1769C5690.36 1806.33 5785.03 1829.67 5870.36 1839C5955.69 1848.33 6023.69 1845 6074.36 1829C6125.03 1811.67 6150.36 1783 6150.36 1743C6150.36 1715 6136.36 1692.33 6108.36 1675C6080.36 1656.33 6043.69 1639.67 5998.36 1625C5954.36 1610.33 5907.69 1593.67 5858.36 1575C5809.03 1555 5761.69 1530.33 5716.36 1501C5672.36 1470.33 5636.36 1431 5608.36 1383C5580.36 1333.67 5566.36 1272.33 5566.36 1199C5566.36 1108.33 5590.36 1031.67 5638.36 969C5686.36 906.333 5751.03 859 5832.36 827C5915.03 795 6008.36 779 6112.36 779C6217.69 779 6326.36 795 6438.36 827C6438.36 884.333 6438.36 941.667 6438.36 999C6438.36 1056.33 6438.36 1113.67 6438.36 1171C6345.03 1131 6259.03 1107 6180.36 1099C6103.03 1089.67 6041.03 1093.67 5994.36 1111C5947.69 1127 5924.36 1153.67 5924.36 1191C5924.36 1217.67 5938.36 1239.67 5966.36 1257C5994.36 1274.33 6030.36 1290.33 6074.36 1305C6119.69 1318.33 6167.03 1335 6216.36 1355C6265.69 1373.67 6312.36 1399 6356.36 1431C6401.69 1461.67 6438.36 1502.33 6466.36 1553C6494.36 1602.33 6508.36 1665.67 6508.36 1743ZM6650.53 2153C6650.53 1929 6650.53 1702.33 6650.53 1473C6650.53 1243.67 6650.53 1017 6650.53 793C6733.2 793 6816.53 793 6900.53 793C6984.53 793 7067.86 793 7150.53 793C7189.2 929 7227.2 1067 7264.53 1207C7303.2 1345.67 7341.2 1483 7378.53 1619C7415.86 1483 7453.2 1345.67 7490.53 1207C7529.2 1067 7567.2 929 7604.53 793C7687.2 793 7769.86 793 7852.53 793C7935.2 793 8017.2 793 8098.53 793C8099.86 1017 8101.2 1243.67 8102.53 1473C8103.86 1702.33 8105.2 1929 8106.53 2153C8050.53 2153 7993.86 2153 7936.53 2153C7880.53 2153 7824.53 2153 7768.53 2153C7768.53 2001 7768.53 1847.67 7768.53 1693C7768.53 1537 7768.53 1383 7768.53 1231C7728.53 1383 7687.86 1537 7646.53 1693C7605.2 1847.67 7564.53 2001 7524.53 2153C7475.2 2153 7424.53 2153 7372.53 2153C7321.86 2153 7271.2 2153 7220.53 2153C7180.53 2003.67 7140.53 1853 7100.53 1701C7060.53 1547.67 7020.53 1396.33 6980.53 1247C6980.53 1396.33 6980.53 1547.67 6980.53 1701C6980.53 1853 6980.53 2003.67 6980.53 2153C6927.2 2153 6872.53 2153 6816.53 2153C6760.53 2153 6705.2 2153 6650.53 2153Z" fill="url(#paint2_linear_997_113)"/>
<rect x="2876" y="1099" width="1629" height="334" rx="167" fill="black"/>
<rect x="3096.5" y="1254.5" width="1188" height="23" stroke="white" stroke-width="23" stroke-miterlimit="16" stroke-dasharray="200 100"/>
</g>
<g filter="url(#filter1_d_997_113)">
<path d="M253.625 2609V2390.25H307.826C322.248 2390.25 334.4 2392.44 344.285 2396.81C354.331 2401.19 362.433 2406.94 368.59 2414.07C374.748 2421.04 379.204 2428.65 381.958 2436.92C384.875 2445.18 386.333 2453.28 386.333 2461.22C386.333 2469 384.956 2477.02 382.201 2485.28C379.447 2493.55 374.991 2501.25 368.833 2508.38C362.676 2515.5 354.574 2521.26 344.528 2525.63C334.481 2530.01 322.248 2532.19 307.826 2532.19H281.333V2609H253.625ZM281.333 2507.4H306.368C319.493 2507.4 329.863 2505.13 337.479 2500.6C345.095 2495.9 350.523 2490.06 353.764 2483.1C357.005 2475.97 358.625 2468.68 358.625 2461.22C358.625 2454.09 357.005 2446.96 353.764 2439.83C350.685 2432.7 345.338 2426.79 337.722 2422.09C330.269 2417.39 319.817 2415.04 306.368 2415.04H281.333V2507.4ZM421.333 2609V2463.17H445.639V2489.9C450.824 2481.31 457.711 2474.51 466.299 2469.49C474.887 2464.3 485.095 2461.71 496.924 2461.71L503.486 2487.96C500.407 2486.99 496.843 2486.5 492.792 2486.5C479.181 2486.5 468.243 2490.88 459.979 2499.62C451.715 2508.21 447.583 2520.53 447.583 2536.57V2609H421.333ZM595.437 2611.92C580.206 2611.92 566.513 2608.51 554.361 2601.71C542.37 2594.9 532.891 2585.67 525.923 2574C519.118 2562.17 515.715 2549.05 515.715 2534.62C515.715 2520.85 519.037 2508.37 525.68 2497.19C532.324 2485.85 541.236 2476.86 552.416 2470.22C563.759 2463.57 576.236 2460.25 589.847 2460.25C603.296 2460.25 615.611 2463.49 626.791 2469.97C637.972 2476.29 646.884 2484.88 653.527 2495.74C660.171 2506.59 663.493 2518.91 663.493 2532.68V2543.38H568.215C564.002 2543.38 559.708 2543.21 555.333 2542.89C550.958 2542.56 546.664 2542.08 542.451 2541.43C544.233 2554.39 550.067 2565.25 559.951 2574C569.997 2582.75 581.907 2587.12 595.68 2587.12C604.916 2587.12 613.504 2585.02 621.444 2580.81C629.384 2576.59 635.784 2571 640.645 2564.03L647.937 2593.93C640.969 2599.6 632.949 2604.06 623.875 2607.3C614.963 2610.38 605.483 2611.92 595.437 2611.92ZM541.722 2523.69C550.472 2522.23 559.303 2521.5 568.215 2521.5H616.583C620.148 2521.5 623.632 2521.66 627.034 2521.99C630.599 2522.15 634.164 2522.39 637.729 2522.72C635.46 2511.37 629.789 2502.06 620.715 2494.76C611.641 2487.31 601.351 2483.58 589.847 2483.58C578.018 2483.58 567.648 2487.55 558.736 2495.49C549.824 2503.27 544.152 2512.67 541.722 2523.69ZM760.996 2610.94C747.709 2610.94 735.556 2607.62 724.538 2600.98C713.519 2594.17 704.688 2585.1 698.044 2573.76C691.563 2562.41 688.322 2549.86 688.322 2536.08C688.322 2522.31 691.563 2509.75 698.044 2498.41C704.688 2487.07 713.519 2478.07 724.538 2471.43C735.556 2464.62 747.709 2461.22 760.996 2461.22C770.556 2461.22 779.549 2462.92 787.975 2466.33C796.401 2469.73 803.855 2474.43 810.336 2480.42V2375.67H836.586V2609H812.281V2589.8C805.799 2596.28 798.102 2601.47 789.19 2605.35C780.44 2609.08 771.042 2610.94 760.996 2610.94ZM764.399 2587.12C773.635 2587.12 781.98 2584.86 789.433 2580.32C797.049 2575.62 803.044 2569.46 807.419 2561.85C811.957 2554.07 814.225 2545.48 814.225 2536.08C814.225 2526.69 811.957 2518.18 807.419 2510.56C803.044 2502.78 797.049 2496.63 789.433 2492.09C781.98 2487.39 773.635 2485.04 764.399 2485.04C755.163 2485.04 746.737 2487.39 739.121 2492.09C731.667 2496.63 725.672 2502.78 721.135 2510.56C716.76 2518.18 714.572 2526.69 714.572 2536.08C714.572 2545.48 716.76 2554.07 721.135 2561.85C725.672 2569.46 731.667 2575.62 739.121 2580.32C746.737 2584.86 755.163 2587.12 764.399 2587.12ZM883.101 2609V2463.17H909.351V2609H883.101ZM896.226 2436.92C891.365 2436.92 887.233 2435.22 883.83 2431.81C880.427 2428.41 878.726 2424.28 878.726 2419.42C878.726 2414.39 880.427 2410.26 883.83 2407.02C887.233 2403.62 891.365 2401.92 896.226 2401.92C901.249 2401.92 905.381 2403.62 908.622 2407.02C912.025 2410.26 913.726 2414.39 913.726 2419.42C913.726 2424.28 912.025 2428.41 908.622 2431.81C905.381 2435.22 901.249 2436.92 896.226 2436.92ZM1022.99 2611.92C1008.73 2611.92 995.765 2608.51 984.098 2601.71C972.431 2594.9 963.114 2585.75 956.147 2574.24C949.179 2562.74 945.695 2550.02 945.695 2536.08C945.695 2522.15 949.179 2509.43 956.147 2497.92C963.114 2486.42 972.431 2477.26 984.098 2470.46C995.765 2463.65 1008.73 2460.25 1022.99 2460.25C1033.52 2460.25 1043.4 2462.11 1052.64 2465.84C1061.88 2469.57 1069.98 2474.51 1076.95 2480.67L1068.92 2513.72C1064.87 2505.62 1058.72 2498.81 1050.45 2493.31C1042.35 2487.8 1033.11 2485.04 1022.74 2485.04C1013.35 2485.04 1004.76 2487.39 996.98 2492.09C989.364 2496.63 983.288 2502.78 978.751 2510.56C974.214 2518.18 971.945 2526.69 971.945 2536.08C971.945 2545.32 974.214 2553.83 978.751 2561.6C983.288 2569.38 989.364 2575.62 996.98 2580.32C1004.76 2584.86 1013.35 2587.12 1022.74 2587.12C1033.11 2587.12 1042.35 2584.45 1050.45 2579.1C1058.72 2573.76 1064.87 2566.87 1068.92 2558.44L1076.95 2591.5C1069.98 2597.66 1061.88 2602.6 1052.64 2606.33C1043.4 2610.05 1033.52 2611.92 1022.99 2611.92ZM1126.04 2609V2485.04H1092.99V2463.17H1126.77V2414.56H1151.56V2463.17H1187.78V2485.04H1152.29V2609H1126.04ZM1218.4 2609V2463.17H1244.65V2609H1218.4ZM1231.53 2436.92C1226.67 2436.92 1222.54 2435.22 1219.13 2431.81C1215.73 2428.41 1214.03 2424.28 1214.03 2419.42C1214.03 2414.39 1215.73 2410.26 1219.13 2407.02C1222.54 2403.62 1226.67 2401.92 1231.53 2401.92C1236.55 2401.92 1240.68 2403.62 1243.92 2407.02C1247.33 2410.26 1249.03 2414.39 1249.03 2419.42C1249.03 2424.28 1247.33 2428.41 1243.92 2431.81C1240.68 2435.22 1236.55 2436.92 1231.53 2436.92ZM1344.44 2616.29L1270.79 2463.17H1300.69L1330.34 2526.36C1333.09 2532.03 1335.69 2537.62 1338.12 2543.13C1340.55 2548.64 1342.9 2555.37 1345.16 2563.31C1347.6 2555.37 1350.03 2548.64 1352.46 2543.13C1355.05 2537.46 1357.64 2531.87 1360.23 2526.36L1390.13 2463.17H1418.08L1344.44 2616.29ZM1506.67 2611.92C1491.44 2611.92 1477.74 2608.51 1465.59 2601.71C1453.6 2594.9 1444.12 2585.67 1437.15 2574C1430.35 2562.17 1426.95 2549.05 1426.95 2534.62C1426.95 2520.85 1430.27 2508.37 1436.91 2497.19C1443.55 2485.85 1452.47 2476.86 1463.65 2470.22C1474.99 2463.57 1487.47 2460.25 1501.08 2460.25C1514.53 2460.25 1526.84 2463.49 1538.02 2469.97C1549.2 2476.29 1558.11 2484.88 1564.76 2495.74C1571.4 2506.59 1574.72 2518.91 1574.72 2532.68V2543.38H1479.45C1475.23 2543.38 1470.94 2543.21 1466.56 2542.89C1462.19 2542.56 1457.89 2542.08 1453.68 2541.43C1455.46 2554.39 1461.3 2565.25 1471.18 2574C1481.23 2582.75 1493.14 2587.12 1506.91 2587.12C1516.15 2587.12 1524.73 2585.02 1532.67 2580.81C1540.61 2576.59 1547.01 2571 1551.88 2564.03L1559.17 2593.93C1552.2 2599.6 1544.18 2604.06 1535.11 2607.3C1526.19 2610.38 1516.71 2611.92 1506.67 2611.92ZM1452.95 2523.69C1461.7 2522.23 1470.53 2521.5 1479.45 2521.5H1527.81C1531.38 2521.5 1534.86 2521.66 1538.26 2521.99C1541.83 2522.15 1545.39 2522.39 1548.96 2522.72C1546.69 2511.37 1541.02 2502.06 1531.95 2494.76C1522.87 2487.31 1512.58 2483.58 1501.08 2483.58C1489.25 2483.58 1478.88 2487.55 1469.97 2495.49C1461.05 2503.27 1455.38 2512.67 1452.95 2523.69ZM1690.58 2609V2390.25H1745.52C1759.29 2390.25 1771.12 2393 1781 2398.51C1790.89 2404.02 1798.5 2411.31 1803.85 2420.39C1809.36 2429.3 1812.11 2439.1 1812.11 2449.8C1812.11 2461.79 1808.71 2472.56 1801.9 2482.12C1795.1 2491.69 1785.78 2498.73 1773.95 2503.27L1847.36 2609H1815.03L1745.52 2508.38H1718.29V2609H1690.58ZM1718.29 2485.04H1745.52C1754.91 2485.04 1762.53 2483.34 1768.36 2479.94C1774.36 2476.37 1778.73 2471.92 1781.49 2466.57C1784.4 2461.06 1785.86 2455.47 1785.86 2449.8C1785.86 2439.59 1782.14 2431.25 1774.68 2424.76C1767.39 2418.28 1757.67 2415.04 1745.52 2415.04H1718.29V2485.04ZM1929.29 2611.92C1915.19 2611.92 1902.31 2608.51 1890.64 2601.71C1878.98 2594.9 1869.66 2585.75 1862.69 2574.24C1855.89 2562.74 1852.48 2550.02 1852.48 2536.08C1852.48 2521.99 1855.89 2509.27 1862.69 2497.92C1869.66 2486.42 1878.98 2477.26 1890.64 2470.46C1902.31 2463.65 1915.19 2460.25 1929.29 2460.25C1943.55 2460.25 1956.43 2463.65 1967.93 2470.46C1979.6 2477.26 1988.84 2486.42 1995.64 2497.92C2002.61 2509.27 2006.09 2521.99 2006.09 2536.08C2006.09 2550.02 2002.61 2562.74 1995.64 2574.24C1988.84 2585.75 1979.6 2594.9 1967.93 2601.71C1956.43 2608.51 1943.55 2611.92 1929.29 2611.92ZM1929.29 2587.12C1938.69 2587.12 1947.19 2584.86 1954.81 2580.32C1962.42 2575.62 1968.5 2569.46 1973.04 2561.85C1977.58 2554.07 1979.84 2545.48 1979.84 2536.08C1979.84 2526.69 1977.58 2518.18 1973.04 2510.56C1968.5 2502.78 1962.42 2496.63 1954.81 2492.09C1947.19 2487.39 1938.69 2485.04 1929.29 2485.04C1919.89 2485.04 1911.38 2487.39 1903.77 2492.09C1896.15 2496.63 1890.08 2502.78 1885.54 2510.56C1881 2518.18 1878.73 2526.69 1878.73 2536.08C1878.73 2545.48 1881 2554.07 1885.54 2561.85C1890.08 2569.46 1896.15 2575.62 1903.77 2580.32C1911.38 2584.86 1919.89 2587.12 1929.29 2587.12ZM2104.94 2610.94C2091.65 2610.94 2079.5 2607.62 2068.48 2600.98C2057.46 2594.17 2048.63 2585.1 2041.99 2573.76C2035.51 2562.41 2032.27 2549.86 2032.27 2536.08C2032.27 2522.31 2035.51 2509.75 2041.99 2498.41C2048.63 2487.07 2057.46 2478.07 2068.48 2471.43C2079.5 2464.62 2091.65 2461.22 2104.94 2461.22C2114.99 2461.22 2124.39 2463.09 2133.14 2466.81C2142.05 2470.54 2149.74 2475.72 2156.23 2482.37V2463.17H2180.53V2609H2156.23V2589.8C2149.74 2596.28 2142.05 2601.47 2133.14 2605.35C2124.39 2609.08 2114.99 2610.94 2104.94 2610.94ZM2108.34 2587.12C2117.58 2587.12 2125.92 2584.86 2133.38 2580.32C2140.99 2575.62 2146.99 2569.46 2151.36 2561.85C2155.9 2554.07 2158.17 2545.48 2158.17 2536.08C2158.17 2526.69 2155.9 2518.18 2151.36 2510.56C2146.99 2502.78 2140.99 2496.63 2133.38 2492.09C2125.92 2487.39 2117.58 2485.04 2108.34 2485.04C2099.11 2485.04 2090.68 2487.39 2083.07 2492.09C2075.61 2496.63 2069.62 2502.78 2065.08 2510.56C2060.71 2518.18 2058.52 2526.69 2058.52 2536.08C2058.52 2545.48 2060.71 2554.07 2065.08 2561.85C2069.62 2569.46 2075.61 2575.62 2083.07 2580.32C2090.68 2584.86 2099.11 2587.12 2108.34 2587.12ZM2289.51 2610.94C2276.22 2610.94 2264.07 2607.62 2253.05 2600.98C2242.03 2594.17 2233.2 2585.1 2226.56 2573.76C2220.08 2562.41 2216.84 2549.86 2216.84 2536.08C2216.84 2522.31 2220.08 2509.75 2226.56 2498.41C2233.2 2487.07 2242.03 2478.07 2253.05 2471.43C2264.07 2464.62 2276.22 2461.22 2289.51 2461.22C2299.07 2461.22 2308.06 2462.92 2316.49 2466.33C2324.92 2469.73 2332.37 2474.43 2338.85 2480.42V2375.67H2365.1V2609H2340.8V2589.8C2334.31 2596.28 2326.62 2601.47 2317.71 2605.35C2308.96 2609.08 2299.56 2610.94 2289.51 2610.94ZM2292.91 2587.12C2302.15 2587.12 2310.5 2584.86 2317.95 2580.32C2325.56 2575.62 2331.56 2569.46 2335.94 2561.85C2340.47 2554.07 2342.74 2545.48 2342.74 2536.08C2342.74 2526.69 2340.47 2518.18 2335.94 2510.56C2331.56 2502.78 2325.56 2496.63 2317.95 2492.09C2310.5 2487.39 2302.15 2485.04 2292.91 2485.04C2283.68 2485.04 2275.25 2487.39 2267.64 2492.09C2260.18 2496.63 2254.19 2502.78 2249.65 2510.56C2245.28 2518.18 2243.09 2526.69 2243.09 2536.08C2243.09 2545.48 2245.28 2554.07 2249.65 2561.85C2254.19 2569.46 2260.18 2575.62 2267.64 2580.32C2275.25 2584.86 2283.68 2587.12 2292.91 2587.12ZM2494.63 2609V2390.25H2522.34V2609H2494.63ZM2579.1 2609V2463.17H2603.4V2486.74C2608.75 2478.16 2615.64 2471.59 2624.06 2467.06C2632.65 2462.52 2641.89 2460.25 2651.77 2460.25C2662.14 2460.25 2671.7 2462.84 2680.45 2468.03C2689.36 2473.05 2696.57 2480.42 2702.08 2490.15C2707.59 2499.71 2710.35 2511.37 2710.35 2525.15V2609H2684.1V2528.79C2684.1 2517.29 2680.61 2507.16 2673.65 2498.41C2666.84 2489.5 2657.2 2485.04 2644.72 2485.04C2634.51 2485.04 2625.36 2488.77 2617.26 2496.22C2609.32 2503.51 2605.35 2514.13 2605.35 2528.06V2609H2579.1ZM2771.11 2609V2485.04H2738.06V2463.17H2771.84V2421.36C2771.84 2405.48 2776.54 2393.41 2785.94 2385.15C2795.34 2376.88 2806.52 2372.75 2819.48 2372.75C2824.34 2372.75 2829.28 2373.32 2834.31 2374.45C2839.49 2375.59 2844.35 2377.53 2848.89 2380.28L2842.57 2405.81C2835.76 2398.35 2827.82 2394.62 2818.75 2394.62C2813.24 2394.62 2808.14 2396.49 2803.44 2400.22C2798.9 2403.94 2796.63 2411.15 2796.63 2421.85V2463.17H2832.85V2485.04H2797.36V2609H2771.11ZM2863.47 2609V2463.17H2887.78V2489.9C2892.96 2481.31 2899.85 2474.51 2908.44 2469.49C2917.03 2464.3 2927.23 2461.71 2939.06 2461.71L2945.62 2487.96C2942.55 2486.99 2938.98 2486.5 2934.93 2486.5C2921.32 2486.5 2910.38 2490.88 2902.12 2499.62C2893.85 2508.21 2889.72 2520.53 2889.72 2536.57V2609H2863.47ZM3030.53 2610.94C3017.24 2610.94 3005.09 2607.62 2994.07 2600.98C2983.05 2594.17 2974.22 2585.1 2967.58 2573.76C2961.09 2562.41 2957.85 2549.86 2957.85 2536.08C2957.85 2522.31 2961.09 2509.75 2967.58 2498.41C2974.22 2487.07 2983.05 2478.07 2994.07 2471.43C3005.09 2464.62 3017.24 2461.22 3030.53 2461.22C3040.57 2461.22 3049.97 2463.09 3058.72 2466.81C3067.63 2470.54 3075.33 2475.72 3081.81 2482.37V2463.17H3106.12V2609H3081.81V2589.8C3075.33 2596.28 3067.63 2601.47 3058.72 2605.35C3049.97 2609.08 3040.57 2610.94 3030.53 2610.94ZM3033.93 2587.12C3043.17 2587.12 3051.51 2584.86 3058.96 2580.32C3066.58 2575.62 3072.58 2569.46 3076.95 2561.85C3081.49 2554.07 3083.76 2545.48 3083.76 2536.08C3083.76 2526.69 3081.49 2518.18 3076.95 2510.56C3072.58 2502.78 3066.58 2496.63 3058.96 2492.09C3051.51 2487.39 3043.17 2485.04 3033.93 2485.04C3024.69 2485.04 3016.27 2487.39 3008.65 2492.09C3001.2 2496.63 2995.2 2502.78 2990.67 2510.56C2986.29 2518.18 2984.1 2526.69 2984.1 2536.08C2984.1 2545.48 2986.29 2554.07 2990.67 2561.85C2995.2 2569.46 3001.2 2575.62 3008.65 2580.32C3016.27 2584.86 3024.69 2587.12 3033.93 2587.12ZM3190.31 2611.92C3182.85 2611.92 3174.83 2610.54 3166.24 2607.78C3157.82 2604.87 3150.53 2600.09 3144.37 2593.44L3151.66 2564.76C3156.2 2572.38 3162.03 2578.46 3169.16 2582.99C3176.29 2587.37 3183.91 2589.56 3192.01 2589.56C3199.78 2589.56 3205.62 2587.69 3209.51 2583.97C3213.4 2580.08 3215.34 2575.38 3215.34 2569.87C3215.34 2563.55 3213.23 2558.93 3209.02 2556.01C3204.97 2553.1 3201.32 2551.07 3198.08 2549.94L3178.4 2542.4C3174.83 2540.94 3170.54 2538.84 3165.51 2536.08C3160.49 2533.17 3156.12 2529.03 3152.39 2523.69C3148.66 2518.34 3146.8 2511.37 3146.8 2502.78C3146.8 2495.01 3148.66 2487.88 3152.39 2481.4C3156.12 2474.91 3161.38 2469.81 3168.19 2466.08C3174.99 2462.19 3183.01 2460.25 3192.25 2460.25C3199.54 2460.25 3207.16 2461.55 3215.1 2464.14C3223.04 2466.73 3229.76 2471.11 3235.27 2477.26L3227.98 2505.94C3224.09 2498.81 3218.82 2493.14 3212.18 2488.93C3205.54 2484.72 3198.65 2482.61 3191.52 2482.61C3184.88 2482.61 3179.61 2484.47 3175.72 2488.2C3172 2491.93 3170.13 2496.22 3170.13 2501.08C3170.13 2504.97 3171.43 2508.46 3174.02 2511.53C3176.61 2514.61 3180.5 2517.13 3185.69 2519.07L3205.38 2526.6C3208.94 2527.9 3213.32 2530.01 3218.5 2532.92C3223.85 2535.84 3228.55 2540.05 3232.6 2545.56C3236.65 2551.07 3238.67 2558.53 3238.67 2567.92C3238.67 2581.05 3234.06 2591.66 3224.82 2599.76C3215.75 2607.87 3204.24 2611.92 3190.31 2611.92ZM3293.72 2609V2485.04H3260.66V2463.17H3294.45V2414.56H3319.24V2463.17H3355.45V2485.04H3319.97V2609H3293.72ZM3386.08 2609V2463.17H3410.38V2489.9C3415.57 2481.31 3422.46 2474.51 3431.04 2469.49C3439.63 2464.3 3449.84 2461.71 3461.67 2461.71L3468.23 2487.96C3465.15 2486.99 3461.59 2486.5 3457.54 2486.5C3443.93 2486.5 3432.99 2490.88 3424.73 2499.62C3416.46 2508.21 3412.33 2520.53 3412.33 2536.57V2609H3386.08ZM3551.11 2611.92C3540.91 2611.92 3531.35 2609.41 3522.43 2604.38C3513.52 2599.2 3506.31 2591.74 3500.8 2582.02C3495.29 2572.3 3492.54 2560.63 3492.54 2547.02V2463.17H3518.79V2543.38C3518.79 2554.88 3522.19 2565.09 3529 2574C3535.96 2582.75 3545.69 2587.12 3558.16 2587.12C3568.37 2587.12 3577.45 2583.48 3585.38 2576.19C3593.49 2568.73 3597.54 2558.04 3597.54 2544.1V2463.17H3623.79V2609H3599.48V2585.42C3594.13 2594.01 3587.17 2600.57 3578.58 2605.11C3570.15 2609.65 3561 2611.92 3551.11 2611.92ZM3737.54 2611.92C3723.28 2611.92 3710.32 2608.51 3698.65 2601.71C3686.98 2594.9 3677.67 2585.75 3670.7 2574.24C3663.73 2562.74 3660.25 2550.02 3660.25 2536.08C3660.25 2522.15 3663.73 2509.43 3670.7 2497.92C3677.67 2486.42 3686.98 2477.26 3698.65 2470.46C3710.32 2463.65 3723.28 2460.25 3737.54 2460.25C3748.07 2460.25 3757.95 2462.11 3767.19 2465.84C3776.43 2469.57 3784.53 2474.51 3791.5 2480.67L3783.48 2513.72C3779.42 2505.62 3773.27 2498.81 3765 2493.31C3756.9 2487.8 3747.67 2485.04 3737.29 2485.04C3727.9 2485.04 3719.31 2487.39 3711.53 2492.09C3703.92 2496.63 3697.84 2502.78 3693.3 2510.56C3688.76 2518.18 3686.5 2526.69 3686.5 2536.08C3686.5 2545.32 3688.76 2553.83 3693.3 2561.6C3697.84 2569.38 3703.92 2575.62 3711.53 2580.32C3719.31 2584.86 3727.9 2587.12 3737.29 2587.12C3747.67 2587.12 3756.9 2584.45 3765 2579.1C3773.27 2573.76 3779.42 2566.87 3783.48 2558.44L3791.5 2591.5C3784.53 2597.66 3776.43 2602.6 3767.19 2606.33C3757.95 2610.05 3748.07 2611.92 3737.54 2611.92ZM3840.59 2609V2485.04H3807.54V2463.17H3841.32V2414.56H3866.11V2463.17H3902.33V2485.04H3866.84V2609H3840.59ZM3988.61 2611.92C3978.41 2611.92 3968.85 2609.41 3959.93 2604.38C3951.02 2599.2 3943.81 2591.74 3938.3 2582.02C3932.79 2572.3 3930.04 2560.63 3930.04 2547.02V2463.17H3956.29V2543.38C3956.29 2554.88 3959.69 2565.09 3966.5 2574C3973.46 2582.75 3983.19 2587.12 3995.66 2587.12C4005.87 2587.12 4014.95 2583.48 4022.88 2576.19C4030.99 2568.73 4035.04 2558.04 4035.04 2544.1V2463.17H4061.29V2609H4036.98V2585.42C4031.63 2594.01 4024.67 2600.57 4016.08 2605.11C4007.65 2609.65 3998.5 2611.92 3988.61 2611.92ZM4107.95 2609V2463.17H4132.26V2489.9C4137.45 2481.31 4144.33 2474.51 4152.92 2469.49C4161.51 2464.3 4171.72 2461.71 4183.54 2461.71L4190.11 2487.96C4187.03 2486.99 4183.46 2486.5 4179.41 2486.5C4165.8 2486.5 4154.86 2490.88 4146.6 2499.62C4138.34 2508.21 4134.2 2520.53 4134.2 2536.57V2609H4107.95ZM4282.06 2611.92C4266.83 2611.92 4253.13 2608.51 4240.98 2601.71C4228.99 2594.9 4219.51 2585.67 4212.54 2574C4205.74 2562.17 4202.34 2549.05 4202.34 2534.62C4202.34 2520.85 4205.66 2508.37 4212.3 2497.19C4218.94 2485.85 4227.86 2476.86 4239.04 2470.22C4250.38 2463.57 4262.86 2460.25 4276.47 2460.25C4289.92 2460.25 4302.23 2463.49 4313.41 2469.97C4324.59 2476.29 4333.5 2484.88 4340.15 2495.74C4346.79 2506.59 4350.11 2518.91 4350.11 2532.68V2543.38H4254.84C4250.62 2543.38 4246.33 2543.21 4241.95 2542.89C4237.58 2542.56 4233.29 2542.08 4229.07 2541.43C4230.85 2554.39 4236.69 2565.25 4246.57 2574C4256.62 2582.75 4268.53 2587.12 4282.3 2587.12C4291.54 2587.12 4300.13 2585.02 4308.07 2580.81C4316 2576.59 4322.41 2571 4327.27 2564.03L4334.56 2593.93C4327.59 2599.6 4319.57 2604.06 4310.5 2607.3C4301.58 2610.38 4292.1 2611.92 4282.06 2611.92ZM4228.34 2523.69C4237.09 2522.23 4245.92 2521.5 4254.84 2521.5H4303.2C4306.77 2521.5 4310.25 2521.66 4313.66 2521.99C4317.22 2522.15 4320.79 2522.39 4324.35 2522.72C4322.08 2511.37 4316.41 2502.06 4307.34 2494.76C4298.26 2487.31 4287.97 2483.58 4276.47 2483.58C4264.64 2483.58 4254.27 2487.55 4245.36 2495.49C4236.44 2503.27 4230.77 2512.67 4228.34 2523.69ZM4520.42 2610.94C4507.13 2610.94 4494.98 2607.62 4483.96 2600.98C4472.94 2594.17 4464.11 2585.1 4457.47 2573.76C4450.99 2562.41 4447.75 2549.86 4447.75 2536.08C4447.75 2522.31 4450.99 2509.75 4457.47 2498.41C4464.11 2487.07 4472.94 2478.07 4483.96 2471.43C4494.98 2464.62 4507.13 2461.22 4520.42 2461.22C4530.47 2461.22 4539.86 2463.09 4548.61 2466.81C4557.53 2470.54 4565.22 2475.72 4571.7 2482.37V2463.17H4596.01V2609H4571.7V2589.8C4565.22 2596.28 4557.53 2601.47 4548.61 2605.35C4539.86 2609.08 4530.47 2610.94 4520.42 2610.94ZM4523.82 2587.12C4533.06 2587.12 4541.4 2584.86 4548.86 2580.32C4556.47 2575.62 4562.47 2569.46 4566.84 2561.85C4571.38 2554.07 4573.65 2545.48 4573.65 2536.08C4573.65 2526.69 4571.38 2518.18 4566.84 2510.56C4562.47 2502.78 4556.47 2496.63 4548.86 2492.09C4541.4 2487.39 4533.06 2485.04 4523.82 2485.04C4514.59 2485.04 4506.16 2487.39 4498.54 2492.09C4491.09 2496.63 4485.1 2502.78 4480.56 2510.56C4476.18 2518.18 4474 2526.69 4474 2536.08C4474 2545.48 4476.18 2554.07 4480.56 2561.85C4485.1 2569.46 4491.09 2575.62 4498.54 2580.32C4506.16 2584.86 4514.59 2587.12 4523.82 2587.12ZM4642.52 2609V2463.17H4666.83V2486.74C4672.18 2478.16 4679.06 2471.59 4687.49 2467.06C4696.08 2462.52 4705.31 2460.25 4715.2 2460.25C4725.57 2460.25 4735.13 2462.84 4743.88 2468.03C4752.79 2473.05 4760 2480.42 4765.51 2490.15C4771.02 2499.71 4773.77 2511.37 4773.77 2525.15V2609H4747.52V2528.79C4747.52 2517.29 4744.04 2507.16 4737.07 2498.41C4730.27 2489.5 4720.63 2485.04 4708.15 2485.04C4697.94 2485.04 4688.79 2488.77 4680.68 2496.22C4672.74 2503.51 4668.77 2514.13 4668.77 2528.06V2609H4642.52ZM4879.99 2610.94C4866.7 2610.94 4854.55 2607.62 4843.53 2600.98C4832.51 2594.17 4823.68 2585.1 4817.04 2573.76C4810.56 2562.41 4807.32 2549.86 4807.32 2536.08C4807.32 2522.31 4810.56 2509.75 4817.04 2498.41C4823.68 2487.07 4832.51 2478.07 4843.53 2471.43C4854.55 2464.62 4866.7 2461.22 4879.99 2461.22C4889.55 2461.22 4898.54 2462.92 4906.97 2466.33C4915.4 2469.73 4922.85 2474.43 4929.33 2480.42V2375.67H4955.58V2609H4931.27V2589.8C4924.79 2596.28 4917.1 2601.47 4908.18 2605.35C4899.43 2609.08 4890.04 2610.94 4879.99 2610.94ZM4883.39 2587.12C4892.63 2587.12 4900.97 2584.86 4908.43 2580.32C4916.04 2575.62 4922.04 2569.46 4926.41 2561.85C4930.95 2554.07 4933.22 2545.48 4933.22 2536.08C4933.22 2526.69 4930.95 2518.18 4926.41 2510.56C4922.04 2502.78 4916.04 2496.63 4908.43 2492.09C4900.97 2487.39 4892.63 2485.04 4883.39 2485.04C4874.16 2485.04 4865.73 2487.39 4858.12 2492.09C4850.66 2496.63 4844.67 2502.78 4840.13 2510.56C4835.75 2518.18 4833.57 2526.69 4833.57 2536.08C4833.57 2545.48 4835.75 2554.07 4840.13 2561.85C4844.67 2569.46 4850.66 2575.62 4858.12 2580.32C4865.73 2584.86 4874.16 2587.12 4883.39 2587.12ZM5112.57 2611.92C5105.12 2611.92 5097.1 2610.54 5088.51 2607.78C5080.08 2604.87 5072.79 2600.09 5066.63 2593.44L5073.93 2564.76C5078.46 2572.38 5084.3 2578.46 5091.43 2582.99C5098.56 2587.37 5106.17 2589.56 5114.27 2589.56C5122.05 2589.56 5127.88 2587.69 5131.77 2583.97C5135.66 2580.08 5137.61 2575.38 5137.61 2569.87C5137.61 2563.55 5135.5 2558.93 5131.29 2556.01C5127.24 2553.1 5123.59 2551.07 5120.35 2549.94L5100.66 2542.4C5097.1 2540.94 5092.8 2538.84 5087.78 2536.08C5082.76 2533.17 5078.38 2529.03 5074.65 2523.69C5070.93 2518.34 5069.06 2511.37 5069.06 2502.78C5069.06 2495.01 5070.93 2487.88 5074.65 2481.4C5078.38 2474.91 5083.65 2469.81 5090.45 2466.08C5097.26 2462.19 5105.28 2460.25 5114.52 2460.25C5121.81 2460.25 5129.42 2461.55 5137.36 2464.14C5145.3 2466.73 5152.03 2471.11 5157.54 2477.26L5150.25 2505.94C5146.36 2498.81 5141.09 2493.14 5134.45 2488.93C5127.8 2484.72 5120.92 2482.61 5113.79 2482.61C5107.14 2482.61 5101.88 2484.47 5097.99 2488.2C5094.26 2491.93 5092.4 2496.22 5092.4 2501.08C5092.4 2504.97 5093.69 2508.46 5096.29 2511.53C5098.88 2514.61 5102.77 2517.13 5107.95 2519.07L5127.64 2526.6C5131.21 2527.9 5135.58 2530.01 5140.77 2532.92C5146.11 2535.84 5150.81 2540.05 5154.86 2545.56C5158.91 2551.07 5160.94 2558.53 5160.94 2567.92C5160.94 2581.05 5156.32 2591.66 5147.09 2599.76C5138.01 2607.87 5126.51 2611.92 5112.57 2611.92ZM5192.89 2681.92L5240.29 2587.61L5178.55 2463.17H5208.21L5239.32 2526.36C5242.07 2532.03 5244.75 2537.62 5247.34 2543.13C5249.93 2548.64 5252.52 2555.28 5255.12 2563.06C5257.87 2555.28 5260.46 2548.64 5262.89 2543.13C5265.49 2537.46 5268.24 2531.87 5271.16 2526.36L5302.75 2463.17H5330.71L5221.33 2681.92H5192.89ZM5356.88 2609V2463.17H5381.19V2484.07C5386.53 2476.13 5393.26 2470.22 5401.36 2466.33C5409.62 2462.28 5418.29 2460.25 5427.37 2460.25C5437.25 2460.25 5446.32 2462.6 5454.59 2467.3C5462.85 2471.84 5469.5 2478.24 5474.52 2486.5C5480.19 2477.75 5487.48 2471.19 5496.39 2466.81C5505.47 2462.44 5515.03 2460.25 5525.07 2460.25C5536.09 2460.25 5546.14 2462.84 5555.21 2468.03C5564.45 2473.21 5571.74 2480.5 5577.09 2489.9C5582.6 2499.14 5585.35 2510.08 5585.35 2522.72V2609H5559.1V2525.87C5559.1 2512.59 5555.29 2502.54 5547.68 2495.74C5540.23 2488.77 5531.56 2485.28 5521.67 2485.28C5515.51 2485.28 5509.52 2486.66 5503.69 2489.42C5498.01 2492.17 5493.32 2496.47 5489.59 2502.3C5486.02 2508.13 5484.24 2515.75 5484.24 2525.15V2609H5457.99V2525.87C5457.99 2516.64 5456.13 2509.02 5452.4 2503.03C5448.84 2497.03 5444.14 2492.58 5438.3 2489.66C5432.63 2486.58 5426.72 2485.04 5420.56 2485.04C5414.57 2485.04 5408.65 2486.42 5402.82 2489.17C5397.15 2491.93 5392.45 2496.22 5388.72 2502.06C5384.99 2507.89 5383.13 2515.59 5383.13 2525.15V2609H5356.88ZM5704.54 2610.94C5694.49 2610.94 5685.1 2609.08 5676.35 2605.35C5667.6 2601.47 5659.9 2596.28 5653.26 2589.8V2609H5628.95V2375.67H5655.2V2480.42C5661.68 2474.43 5669.14 2469.73 5677.56 2466.33C5685.99 2462.92 5694.98 2461.22 5704.54 2461.22C5717.99 2461.22 5730.14 2464.62 5741 2471.43C5752.02 2478.07 5760.77 2487.07 5767.25 2498.41C5773.89 2509.75 5777.21 2522.31 5777.21 2536.08C5777.21 2549.86 5773.89 2562.41 5767.25 2573.76C5760.77 2585.1 5752.02 2594.17 5741 2600.98C5730.14 2607.62 5717.99 2610.94 5704.54 2610.94ZM5701.14 2587.12C5710.37 2587.12 5718.72 2584.86 5726.17 2580.32C5733.79 2575.62 5739.78 2569.46 5744.16 2561.85C5748.7 2554.07 5750.96 2545.48 5750.96 2536.08C5750.96 2526.69 5748.7 2518.18 5744.16 2510.56C5739.78 2502.78 5733.79 2496.63 5726.17 2492.09C5718.72 2487.39 5710.37 2485.04 5701.14 2485.04C5691.9 2485.04 5683.48 2487.39 5675.86 2492.09C5668.41 2496.63 5662.41 2502.78 5657.87 2510.56C5653.5 2518.18 5651.31 2526.69 5651.31 2536.08C5651.31 2545.48 5653.5 2554.07 5657.87 2561.85C5662.41 2569.46 5668.41 2575.62 5675.86 2580.32C5683.48 2584.86 5691.9 2587.12 5701.14 2587.12ZM5880.12 2611.92C5866.02 2611.92 5853.14 2608.51 5841.47 2601.71C5829.81 2594.9 5820.49 2585.75 5813.52 2574.24C5806.72 2562.74 5803.31 2550.02 5803.31 2536.08C5803.31 2521.99 5806.72 2509.27 5813.52 2497.92C5820.49 2486.42 5829.81 2477.26 5841.47 2470.46C5853.14 2463.65 5866.02 2460.25 5880.12 2460.25C5894.38 2460.25 5907.26 2463.65 5918.76 2470.46C5930.43 2477.26 5939.67 2486.42 5946.47 2497.92C5953.44 2509.27 5956.92 2521.99 5956.92 2536.08C5956.92 2550.02 5953.44 2562.74 5946.47 2574.24C5939.67 2585.75 5930.43 2594.9 5918.76 2601.71C5907.26 2608.51 5894.38 2611.92 5880.12 2611.92ZM5880.12 2587.12C5889.52 2587.12 5898.02 2584.86 5905.64 2580.32C5913.25 2575.62 5919.33 2569.46 5923.87 2561.85C5928.41 2554.07 5930.67 2545.48 5930.67 2536.08C5930.67 2526.69 5928.41 2518.18 5923.87 2510.56C5919.33 2502.78 5913.25 2496.63 5905.64 2492.09C5898.02 2487.39 5889.52 2485.04 5880.12 2485.04C5870.72 2485.04 5862.21 2487.39 5854.6 2492.09C5846.98 2496.63 5840.91 2502.78 5836.37 2510.56C5831.83 2518.18 5829.56 2526.69 5829.56 2536.08C5829.56 2545.48 5831.83 2554.07 5836.37 2561.85C5840.91 2569.46 5846.98 2575.62 5854.6 2580.32C5862.21 2584.86 5870.72 2587.12 5880.12 2587.12ZM5993.31 2609V2375.67H6019.56V2609H5993.31ZM6066.11 2609V2463.17H6092.36V2609H6066.11ZM6079.23 2436.92C6074.37 2436.92 6070.24 2435.22 6066.84 2431.81C6063.44 2428.41 6061.73 2424.28 6061.73 2419.42C6061.73 2414.39 6063.44 2410.26 6066.84 2407.02C6070.24 2403.62 6074.37 2401.92 6079.23 2401.92C6084.26 2401.92 6088.39 2403.62 6091.63 2407.02C6095.03 2410.26 6096.73 2414.39 6096.73 2419.42C6096.73 2424.28 6095.03 2428.41 6091.63 2431.81C6088.39 2435.22 6084.26 2436.92 6079.23 2436.92ZM6205.99 2611.92C6191.74 2611.92 6178.77 2608.51 6167.11 2601.71C6155.44 2594.9 6146.12 2585.75 6139.15 2574.24C6132.19 2562.74 6128.7 2550.02 6128.7 2536.08C6128.7 2522.15 6132.19 2509.43 6139.15 2497.92C6146.12 2486.42 6155.44 2477.26 6167.11 2470.46C6178.77 2463.65 6191.74 2460.25 6205.99 2460.25C6216.53 2460.25 6226.41 2462.11 6235.65 2465.84C6244.88 2469.57 6252.99 2474.51 6259.95 2480.67L6251.93 2513.72C6247.88 2505.62 6241.72 2498.81 6233.46 2493.31C6225.36 2487.8 6216.12 2485.04 6205.75 2485.04C6196.35 2485.04 6187.77 2487.39 6179.99 2492.09C6172.37 2496.63 6166.3 2502.78 6161.76 2510.56C6157.22 2518.18 6154.95 2526.69 6154.95 2536.08C6154.95 2545.32 6157.22 2553.83 6161.76 2561.6C6166.3 2569.38 6172.37 2575.62 6179.99 2580.32C6187.77 2584.86 6196.35 2587.12 6205.75 2587.12C6216.12 2587.12 6225.36 2584.45 6233.46 2579.1C6241.72 2573.76 6247.88 2566.87 6251.93 2558.44L6259.95 2591.5C6252.99 2597.66 6244.88 2602.6 6235.65 2606.33C6226.41 2610.05 6216.53 2611.92 6205.99 2611.92ZM6364.84 2609V2463.17H6389.14V2484.07C6394.49 2476.13 6401.22 2470.22 6409.32 2466.33C6417.58 2462.28 6426.25 2460.25 6435.33 2460.25C6445.21 2460.25 6454.28 2462.6 6462.55 2467.3C6470.81 2471.84 6477.45 2478.24 6482.48 2486.5C6488.15 2477.75 6495.44 2471.19 6504.35 2466.81C6513.43 2462.44 6522.99 2460.25 6533.03 2460.25C6544.05 2460.25 6554.1 2462.84 6563.17 2468.03C6572.41 2473.21 6579.7 2480.5 6585.05 2489.9C6590.56 2499.14 6593.31 2510.08 6593.31 2522.72V2609H6567.06V2525.87C6567.06 2512.59 6563.25 2502.54 6555.64 2495.74C6548.18 2488.77 6539.52 2485.28 6529.63 2485.28C6523.47 2485.28 6517.48 2486.66 6511.64 2489.42C6505.97 2492.17 6501.27 2496.47 6497.55 2502.3C6493.98 2508.13 6492.2 2515.75 6492.2 2525.15V2609H6465.95V2525.87C6465.95 2516.64 6464.09 2509.02 6460.36 2503.03C6456.8 2497.03 6452.1 2492.58 6446.26 2489.66C6440.59 2486.58 6434.68 2485.04 6428.52 2485.04C6422.52 2485.04 6416.61 2486.42 6410.78 2489.17C6405.11 2491.93 6400.41 2496.22 6396.68 2502.06C6392.95 2507.89 6391.09 2515.59 6391.09 2525.15V2609H6364.84ZM6699.37 2610.94C6686.09 2610.94 6673.93 2607.62 6662.92 2600.98C6651.9 2594.17 6643.07 2585.1 6636.42 2573.76C6629.94 2562.41 6626.7 2549.86 6626.7 2536.08C6626.7 2522.31 6629.94 2509.75 6636.42 2498.41C6643.07 2487.07 6651.9 2478.07 6662.92 2471.43C6673.93 2464.62 6686.09 2461.22 6699.37 2461.22C6709.42 2461.22 6718.82 2463.09 6727.57 2466.81C6736.48 2470.54 6744.18 2475.72 6750.66 2482.37V2463.17H6774.97V2609H6750.66V2589.8C6744.18 2596.28 6736.48 2601.47 6727.57 2605.35C6718.82 2609.08 6709.42 2610.94 6699.37 2610.94ZM6702.78 2587.12C6712.01 2587.12 6720.36 2584.86 6727.81 2580.32C6735.43 2575.62 6741.42 2569.46 6745.8 2561.85C6750.34 2554.07 6752.6 2545.48 6752.6 2536.08C6752.6 2526.69 6750.34 2518.18 6745.8 2510.56C6741.42 2502.78 6735.43 2496.63 6727.81 2492.09C6720.36 2487.39 6712.01 2485.04 6702.78 2485.04C6693.54 2485.04 6685.12 2487.39 6677.5 2492.09C6670.05 2496.63 6664.05 2502.78 6659.51 2510.56C6655.14 2518.18 6652.95 2526.69 6652.95 2536.08C6652.95 2545.48 6655.14 2554.07 6659.51 2561.85C6664.05 2569.46 6670.05 2575.62 6677.5 2580.32C6685.12 2584.86 6693.54 2587.12 6702.78 2587.12ZM6821.48 2609V2463.17H6847.73V2609H6821.48ZM6834.6 2436.92C6829.74 2436.92 6825.61 2435.22 6822.21 2431.81C6818.81 2428.41 6817.1 2424.28 6817.1 2419.42C6817.1 2414.39 6818.81 2410.26 6822.21 2407.02C6825.61 2403.62 6829.74 2401.92 6834.6 2401.92C6839.63 2401.92 6843.76 2403.62 6847 2407.02C6850.4 2410.26 6852.1 2414.39 6852.1 2419.42C6852.1 2424.28 6850.4 2428.41 6847 2431.81C6843.76 2435.22 6839.63 2436.92 6834.6 2436.92ZM6894.28 2609V2463.17H6918.59V2486.74C6923.94 2478.16 6930.82 2471.59 6939.25 2467.06C6947.84 2462.52 6957.07 2460.25 6966.96 2460.25C6977.33 2460.25 6986.89 2462.84 6995.64 2468.03C7004.55 2473.05 7011.76 2480.42 7017.27 2490.15C7022.78 2499.71 7025.53 2511.37 7025.53 2525.15V2609H6999.28V2528.79C6999.28 2517.29 6995.8 2507.16 6988.83 2498.41C6982.03 2489.5 6972.38 2485.04 6959.91 2485.04C6949.7 2485.04 6940.54 2488.77 6932.44 2496.22C6924.5 2503.51 6920.53 2514.13 6920.53 2528.06V2609H6894.28ZM7081.51 2609V2485.04H7048.46V2463.17H7082.24V2414.56H7107.03V2463.17H7143.25V2485.04H7107.76V2609H7081.51ZM7236.21 2611.92C7220.98 2611.92 7207.28 2608.51 7195.13 2601.71C7183.14 2594.9 7173.66 2585.67 7166.69 2574C7159.89 2562.17 7156.49 2549.05 7156.49 2534.62C7156.49 2520.85 7159.81 2508.37 7166.45 2497.19C7173.1 2485.85 7182.01 2476.86 7193.19 2470.22C7204.53 2463.57 7217.01 2460.25 7230.62 2460.25C7244.07 2460.25 7256.38 2463.49 7267.56 2469.97C7278.74 2476.29 7287.66 2484.88 7294.3 2495.74C7300.94 2506.59 7304.26 2518.91 7304.26 2532.68V2543.38H7208.99C7204.77 2543.38 7200.48 2543.21 7196.1 2542.89C7191.73 2542.56 7187.44 2542.08 7183.22 2541.43C7185 2554.39 7190.84 2565.25 7200.72 2574C7210.77 2582.75 7222.68 2587.12 7236.45 2587.12C7245.69 2587.12 7254.28 2585.02 7262.22 2580.81C7270.16 2576.59 7276.56 2571 7281.42 2564.03L7288.71 2593.93C7281.74 2599.6 7273.72 2604.06 7264.65 2607.3C7255.73 2610.38 7246.25 2611.92 7236.21 2611.92ZM7182.49 2523.69C7191.24 2522.23 7200.07 2521.5 7208.99 2521.5H7257.35C7260.92 2521.5 7264.4 2521.66 7267.81 2521.99C7271.37 2522.15 7274.94 2522.39 7278.5 2522.72C7276.23 2511.37 7270.56 2502.06 7261.49 2494.76C7252.41 2487.31 7242.12 2483.58 7230.62 2483.58C7218.79 2483.58 7208.42 2487.55 7199.51 2495.49C7190.6 2503.27 7184.92 2512.67 7182.49 2523.69ZM7339.3 2609V2463.17H7363.61V2486.74C7368.95 2478.16 7375.84 2471.59 7384.27 2467.06C7392.86 2462.52 7402.09 2460.25 7411.98 2460.25C7422.35 2460.25 7431.91 2462.84 7440.66 2468.03C7449.57 2473.05 7456.78 2480.42 7462.29 2490.15C7467.8 2499.71 7470.55 2511.37 7470.55 2525.15V2609H7444.3V2528.79C7444.3 2517.29 7440.82 2507.16 7433.85 2498.41C7427.05 2489.5 7417.4 2485.04 7404.93 2485.04C7394.72 2485.04 7385.56 2488.77 7377.46 2496.22C7369.52 2503.51 7365.55 2514.13 7365.55 2528.06V2609H7339.3ZM7576.77 2610.94C7563.48 2610.94 7551.33 2607.62 7540.31 2600.98C7529.29 2594.17 7520.46 2585.1 7513.82 2573.76C7507.33 2562.41 7504.09 2549.86 7504.09 2536.08C7504.09 2522.31 7507.33 2509.75 7513.82 2498.41C7520.46 2487.07 7529.29 2478.07 7540.31 2471.43C7551.33 2464.62 7563.48 2461.22 7576.77 2461.22C7586.81 2461.22 7596.21 2463.09 7604.96 2466.81C7613.87 2470.54 7621.57 2475.72 7628.05 2482.37V2463.17H7652.36V2609H7628.05V2589.8C7621.57 2596.28 7613.87 2601.47 7604.96 2605.35C7596.21 2609.08 7586.81 2610.94 7576.77 2610.94ZM7580.17 2587.12C7589.41 2587.12 7597.75 2584.86 7605.2 2580.32C7612.82 2575.62 7618.82 2569.46 7623.19 2561.85C7627.73 2554.07 7630 2545.48 7630 2536.08C7630 2526.69 7627.73 2518.18 7623.19 2510.56C7618.82 2502.78 7612.82 2496.63 7605.2 2492.09C7597.75 2487.39 7589.41 2485.04 7580.17 2485.04C7570.93 2485.04 7562.51 2487.39 7554.89 2492.09C7547.44 2496.63 7541.44 2502.78 7536.91 2510.56C7532.53 2518.18 7530.34 2526.69 7530.34 2536.08C7530.34 2545.48 7532.53 2554.07 7536.91 2561.85C7541.44 2569.46 7547.44 2575.62 7554.89 2580.32C7562.51 2584.86 7570.93 2587.12 7580.17 2587.12ZM7698.87 2609V2463.17H7723.18V2486.74C7728.53 2478.16 7735.41 2471.59 7743.84 2467.06C7752.43 2462.52 7761.66 2460.25 7771.55 2460.25C7781.92 2460.25 7791.48 2462.84 7800.23 2468.03C7809.14 2473.05 7816.35 2480.42 7821.86 2490.15C7827.37 2499.71 7830.12 2511.37 7830.12 2525.15V2609H7803.87V2528.79C7803.87 2517.29 7800.39 2507.16 7793.42 2498.41C7786.62 2489.5 7776.97 2485.04 7764.5 2485.04C7754.29 2485.04 7745.13 2488.77 7737.03 2496.22C7729.09 2503.51 7725.12 2514.13 7725.12 2528.06V2609H7698.87ZM7940.96 2611.92C7926.7 2611.92 7913.73 2608.51 7902.07 2601.71C7890.4 2594.9 7881.08 2585.75 7874.12 2574.24C7867.15 2562.74 7863.66 2550.02 7863.66 2536.08C7863.66 2522.15 7867.15 2509.43 7874.12 2497.92C7881.08 2486.42 7890.4 2477.26 7902.07 2470.46C7913.73 2463.65 7926.7 2460.25 7940.96 2460.25C7951.49 2460.25 7961.37 2462.11 7970.61 2465.84C7979.84 2469.57 7987.95 2474.51 7994.91 2480.67L7986.89 2513.72C7982.84 2505.62 7976.68 2498.81 7968.42 2493.31C7960.32 2487.8 7951.08 2485.04 7940.71 2485.04C7931.31 2485.04 7922.73 2487.39 7914.95 2492.09C7907.33 2496.63 7901.26 2502.78 7896.72 2510.56C7892.18 2518.18 7889.91 2526.69 7889.91 2536.08C7889.91 2545.32 7892.18 2553.83 7896.72 2561.6C7901.26 2569.38 7907.33 2575.62 7914.95 2580.32C7922.73 2584.86 7931.31 2587.12 7940.71 2587.12C7951.08 2587.12 7960.32 2584.45 7968.42 2579.1C7976.68 2573.76 7982.84 2566.87 7986.89 2558.44L7994.91 2591.5C7987.95 2597.66 7979.84 2602.6 7970.61 2606.33C7961.37 2610.05 7951.49 2611.92 7940.96 2611.92ZM8096.51 2611.92C8081.28 2611.92 8067.59 2608.51 8055.43 2601.71C8043.44 2594.9 8033.96 2585.67 8027 2574C8020.19 2562.17 8016.79 2549.05 8016.79 2534.62C8016.79 2520.85 8020.11 2508.37 8026.75 2497.19C8033.4 2485.85 8042.31 2476.86 8053.49 2470.22C8064.83 2463.57 8077.31 2460.25 8090.92 2460.25C8104.37 2460.25 8116.68 2463.49 8127.87 2469.97C8139.05 2476.29 8147.96 2484.88 8154.6 2495.74C8161.25 2506.59 8164.57 2518.91 8164.57 2532.68V2543.38H8069.29C8065.08 2543.38 8060.78 2543.21 8056.41 2542.89C8052.03 2542.56 8047.74 2542.08 8043.53 2541.43C8045.31 2554.39 8051.14 2565.25 8061.03 2574C8071.07 2582.75 8082.98 2587.12 8096.75 2587.12C8105.99 2587.12 8114.58 2585.02 8122.52 2580.81C8130.46 2576.59 8136.86 2571 8141.72 2564.03L8149.01 2593.93C8142.04 2599.6 8134.02 2604.06 8124.95 2607.3C8116.04 2610.38 8106.56 2611.92 8096.51 2611.92ZM8042.8 2523.69C8051.55 2522.23 8060.38 2521.5 8069.29 2521.5H8117.66C8121.22 2521.5 8124.71 2521.66 8128.11 2521.99C8131.67 2522.15 8135.24 2522.39 8138.8 2522.72C8136.53 2511.37 8130.86 2502.06 8121.79 2494.76C8112.71 2487.31 8102.43 2483.58 8090.92 2483.58C8079.09 2483.58 8068.72 2487.55 8059.81 2495.49C8050.9 2503.27 8045.23 2512.67 8042.8 2523.69Z" fill="white"/>
</g>
<defs>
<filter id="filter0_d_997_113" x="2451.3" y="572.3" width="5907.93" height="1857.4" filterUnits="userSpaceOnUse" color-interpolation-filters="sRGB">
<feFlood flood-opacity="0" result="BackgroundImageFix"/>
<feColorMatrix in="SourceAlpha" type="matrix" values="0 0 0 0 0 0 0 0 0 0 0 0 0 0 0 0 0 0 127 0" result="hardAlpha"/>
<feMorphology radius="10" operator="dilate" in="SourceAlpha" result="effect1_dropShadow_997_113"/>
<feOffset dx="19" dy="27"/>
<feGaussianBlur stdDeviation="111.85"/>
<feComposite in2="hardAlpha" operator="out"/>
<feColorMatrix type="matrix" values="0 0 0 0 0 0 0 0 0 0 0 0 0 0 0 0 0 0 1 0"/>
<feBlend mode="normal" in2="BackgroundImageFix" result="effect1_dropShadow_997_113"/>
<feBlend mode="normal" in="SourceGraphic" in2="effect1_dropShadow_997_113" result="shape"/>
</filter>
<filter id="filter1_d_997_113" x="3.625" y="2181.75" width="8410.95" height="809.164" filterUnits="userSpaceOnUse" color-interpolation-filters="sRGB">
<feFlood flood-opacity="0" result="BackgroundImageFix"/>
<feColorMatrix in="SourceAlpha" type="matrix" values="0 0 0 0 0 0 0 0 0 0 0 0 0 0 0 0 0 0 127 0" result="hardAlpha"/>
<feOffset dy="59"/>
<feGaussianBlur stdDeviation="125"/>
<feComposite in2="hardAlpha" operator="out"/>
<feColorMatrix type="matrix" values="0 0 0 0 0 0 0 0 0 0 0 0 0 0 0 0 0 0 1 0"/>
<feBlend mode="normal" in2="BackgroundImageFix" result="effect1_dropShadow_997_113"/>
<feBlend mode="normal" in="SourceGraphic" in2="effect1_dropShadow_997_113" result="shape"/>
</filter>
<linearGradient id="paint0_linear_997_113" x1="1315.63" y1="340" x2="1315.44" y2="2334.71" gradientUnits="userSpaceOnUse">
<stop stop-color="#183278"/>
<stop offset="1" stop-color="#8EA1D0"/>
</linearGradient>
<linearGradient id="paint1_linear_997_113" x1="1315.63" y1="340" x2="1315.44" y2="2334.71" gradientUnits="userSpaceOnUse">
<stop stop-color="#183278"/>
<stop offset="1" stop-color="#8EA1D0"/>
</linearGradient>
<linearGradient id="paint2_linear_997_113" x1="5823.5" y1="0" x2="5823.5" y2="2870" gradientUnits="userSpaceOnUse">
<stop stop-color="#E3E7F2"/>
<stop offset="1" stop-color="#92A2CD"/>
</linearGradient>
</defs>
</svg>
